<svg width="59" height="58" viewBox="0 0 59 58" fill="none" xmlns="http://www.w3.org/2000/svg">
<g clip-path="url(#clip0_287_932)">
<path d="M38.3125 39.875C49.3234 39.875 58.25 30.9484 58.25 19.9375C58.25 8.92656 49.3234 0 38.3125 0C27.3016 0 18.375 8.92656 18.375 19.9375C18.375 22.0559 18.7035 24.1062 19.3152 26.0207L1.04297 44.293C0.533203 44.8027 0.25 45.4938 0.25 46.2188V55.2812C0.25 56.7879 1.46211 58 2.96875 58H12.0312C13.5379 58 14.75 56.7879 14.75 55.2812V50.75H19.2812C20.7879 50.75 22 49.5379 22 48.0312V43.5H26.5312C27.2563 43.5 27.9473 43.2168 28.457 42.707L32.2293 38.9348C34.1437 39.5465 36.1941 39.875 38.3125 39.875ZM42.8438 10.875C44.0455 10.875 45.1981 11.3524 46.0478 12.2022C46.8976 13.0519 47.375 14.2045 47.375 15.4062C47.375 16.608 46.8976 17.7606 46.0478 18.6103C45.1981 19.4601 44.0455 19.9375 42.8438 19.9375C41.642 19.9375 40.4894 19.4601 39.6397 18.6103C38.7899 17.7606 38.3125 16.608 38.3125 15.4062C38.3125 14.2045 38.7899 13.0519 39.6397 12.2022C40.4894 11.3524 41.642 10.875 42.8438 10.875Z" fill="#4A5CFF"/>
</g>
<defs>
<clipPath id="clip0_287_932">
<rect width="58" height="58" fill="white" transform="translate(0.25)"/>
</clipPath>
</defs>
</svg>
